<?xml version="1.0" standalone="no"?><!DOCTYPE svg PUBLIC "-//W3C//DTD SVG 1.1//EN" "http://www.w3.org/Graphics/SVG/1.1/DTD/svg11.dtd"><svg t="1736391877455" class="icon" viewBox="0 0 1024 1024" version="1.1" xmlns="http://www.w3.org/2000/svg" p-id="6909" xmlns:xlink="http://www.w3.org/1999/xlink" width="32" height="32"><path d="M512 160a352 352 0 1 0 342.592 270.72 32 32 0 0 1 62.272-14.72A416 416 0 1 1 672 127.872a32 32 0 1 1-24.64 59.072A350.784 350.784 0 0 0 512 160z" fill="#6678A9" p-id="6910"></path><path d="M886.016 179.456a32 32 0 0 1 1.216 45.184l-384 405.376a32 32 0 0 1-45.888 0.64l-128-128a32 32 0 0 1 45.312-45.312L479.36 562.112l361.408-381.44a32 32 0 0 1 45.248-1.28z" fill="#6678A9" p-id="6911"></path></svg>