<?xml version="1.0" standalone="no"?><!DOCTYPE svg PUBLIC "-//W3C//DTD SVG 1.1//EN" "http://www.w3.org/Graphics/SVG/1.1/DTD/svg11.dtd"><svg t="1713511979629" class="icon" viewBox="0 0 1024 1024" version="1.1" xmlns="http://www.w3.org/2000/svg" p-id="5179" xmlns:xlink="http://www.w3.org/1999/xlink" width="32" height="32"><path d="M512 512m-490.666667 0a490.666667 490.666667 0 1 0 981.333334 0 490.666667 490.666667 0 1 0-981.333334 0Z" fill="inherit" fill-opacity="0" p-id="5180"></path><path d="M532.202667 261.461333a22.805333 22.805333 0 0 0-15.018667-5.461333c-5.632 0-11.029333 1.962667-14.997333 5.461333l-154.645334 135.893334a17.088 17.088 0 0 0 0 26.346666 23.338667 23.338667 0 0 0 30.016 0l139.626667-122.666666 139.626667 122.666666c4.16 3.648 9.6 5.461333 15.018666 5.461334 5.418667 0 10.88-1.813333 14.997334-5.461334a17.088 17.088 0 0 0 0-26.368l-154.624-135.872zM213.333333 601.408h68.757334v175.530667h32.128V601.386667h68.757333v-32.128H213.333333v32.128z m346.922667-32.128h-85.141333c-10.282667 0-20.565333 3.925333-28.416 11.754667-7.850667 7.850667-11.776 18.133333-11.776 28.416v127.296c0 10.282667 3.925333 20.565333 11.776 28.416 7.850667 7.850667 18.133333 11.776 28.416 11.776h85.141333c10.282667 0 20.565333-3.925333 28.416-11.776 7.850667-7.850667 11.776-18.133333 11.776-28.416v-127.296c0-10.282667-3.925333-20.565333-11.776-28.416a40.042667 40.042667 0 0 0-28.416-11.754667z m8.042667 167.466667a7.893333 7.893333 0 0 1-2.346667 5.674666 7.893333 7.893333 0 0 1-5.696 2.346667h-85.141333a7.893333 7.893333 0 0 1-5.696-2.346667 7.893333 7.893333 0 0 1-2.346667-5.674666v-127.296a7.893333 7.893333 0 0 1 2.346667-5.674667 7.893333 7.893333 0 0 1 5.696-2.346667h85.141333a7.893333 7.893333 0 0 1 5.674667 2.346667 7.893333 7.893333 0 0 1 2.346666 5.674667v127.296z m232.32-155.712a40.064 40.064 0 0 0-28.373334-11.754667h-110.229333v207.658667h32.149333v-91.093334h78.08c10.261333 0 20.544-3.925333 28.373334-11.754666 7.872-7.850667 11.797333-18.133333 11.797333-28.416v-36.224c0-10.282667-3.925333-20.565333-11.776-28.416z m-20.352 64.64a7.893333 7.893333 0 0 1-2.346667 5.674666 7.893333 7.893333 0 0 1-5.696 2.346667H694.186667v-52.266667h78.08a7.893333 7.893333 0 0 1 5.674666 2.346667 7.893333 7.893333 0 0 1 2.346667 5.674667v36.224z" fill="currentColor" p-id="5181"></path></svg>