<?xml version="1.0" standalone="no"?><!DOCTYPE svg PUBLIC "-//W3C//DTD SVG 1.1//EN" "http://www.w3.org/Graphics/SVG/1.1/DTD/svg11.dtd"><svg t="1713340803279" class="icon" viewBox="0 0 1024 1024" version="1.1" xmlns="http://www.w3.org/2000/svg" p-id="5309" xmlns:xlink="http://www.w3.org/1999/xlink" width="32" height="32"><path d="M511.7 898.2l-9.5-6.5c-2.8-1.9-69.9-47.4-138.1-110.9-93.9-87.5-141.5-163.7-141.5-226.6v-285l289.5-136.1 289.5 135.3v285.7c0 67.5-47.6 145.2-141.6 230.8-68.3 62.3-135.5 105.1-138.3 106.9l-10 6.4zM257.8 291.5v262.7c0 51.9 44.9 121.2 130 200.5 51.5 48 103.6 86.2 124.5 101.1 21-14.1 72.9-50.5 124.1-97.2 85-77.4 129.8-148.2 129.8-204.5V290.8L512.1 172 257.8 291.5z" p-id="5310"></path><path d="M644.5 504.1l-15.4 110H362.5l15.4-110h266.6z m-104.7-9.7l-25.6-10.2-28.4 10.2H373l4.6-33.3h69l4.6-1.4-29.5-11.9h-49l51.9-71.5-7.4-8.4h79.9l-9.9 13.3h174.5l-7.4 53.3-70.4 25.2 4.2 1.4h69l-4.6 33.3H539.8zM474 580.9l1.1-8.4h-53.3l-1.1 8.4H474z m-48.4-35.1h53.3l1.1-8.4h-53.3l-1.1 8.4z m44.5-131.3l50.8 20.3 56.8-20.3H470.1z m110.3 166.4l1.1-8.4h-53.3l-1.1 8.4h53.3z m-47.3-43.4l-1.1 8.4h53.3l1.1-8.4h-53.3z" fill="#0000FF" p-id="5311"></path></svg>