<?xml version="1.0" standalone="no"?><!DOCTYPE svg PUBLIC "-//W3C//DTD SVG 1.1//EN" "http://www.w3.org/Graphics/SVG/1.1/DTD/svg11.dtd"><svg t="1713341525219" class="icon" viewBox="0 0 1024 1024" version="1.1" xmlns="http://www.w3.org/2000/svg" p-id="17516" xmlns:xlink="http://www.w3.org/1999/xlink" width="32" height="32"><path d="M520.7 290.2m-183.9 0a183.9 183.9 0 1 0 367.8 0 183.9 183.9 0 1 0-367.8 0Z" fill="#1296db" p-id="17517"></path><path d="M681.1 890.6H360.3c-102.2 0-185.9-83.6-185.9-185.9 0-102.2 83.6-185.9 185.9-185.9h320.8c102.2 0 185.9 83.6 185.9 185.9 0 102.3-83.7 185.9-185.9 185.9z" fill="#1296db" p-id="17518"></path><path d="M499.4 468.8c-110.2 0-199.9-89.7-199.9-199.9S389.1 69 499.4 69c110.2 0 199.9 89.7 199.9 199.9s-89.7 199.9-199.9 199.9z m0-367.8c-92.6 0-167.9 75.3-167.9 167.9 0 92.6 75.3 167.9 167.9 167.9s167.9-75.3 167.9-167.9c0-92.6-75.4-167.9-167.9-167.9zM659.8 885.3H338.9c-53.7 0-104.3-21.1-142.6-59.3S137 737.1 137 683.4c0-53.7 21.1-104.3 59.3-142.6s88.9-59.3 142.6-59.3h320.8c53.7 0 104.3 21.1 142.6 59.3s59.3 88.9 59.3 142.6c0 53.7-21.1 104.3-59.3 142.6s-88.8 59.3-142.5 59.3zM338.9 513.5c-93.7 0-169.9 76.2-169.9 169.9s76.2 169.9 169.9 169.9h320.8c93.7 0 169.9-76.2 169.9-169.9s-76.2-169.9-169.9-169.9H338.9z" fill="#1296db" p-id="17519"></path><path d="M499.4 651.6c-4.5 0-8.8-1.9-11.8-5.2l-126-138c-4.3-4.7-5.4-11.4-2.8-17.2s8.3-9.5 14.6-9.5h252.1c6.3 0 12.1 3.7 14.6 9.5 2.6 5.8 1.5 12.6-2.8 17.2l-126 138c-3.2 3.3-7.4 5.2-11.9 5.2z m-89.8-138.1l89.8 98.3 89.8-98.3H409.6z" fill="#1296db" p-id="17520"></path></svg>